<?xml version="1.0" encoding="UTF-8" standalone="no"?>
<svg
   xmlns:dc="http://purl.org/dc/elements/1.1/"
   xmlns:cc="http://creativecommons.org/ns#"
   xmlns:rdf="http://www.w3.org/1999/02/22-rdf-syntax-ns#"
   xmlns:svg="http://www.w3.org/2000/svg"
   xmlns="http://www.w3.org/2000/svg"
   xmlns:xlink="http://www.w3.org/1999/xlink"
   xmlns:sodipodi="http://sodipodi.sourceforge.net/DTD/sodipodi-0.dtd"
   xmlns:inkscape="http://www.inkscape.org/namespaces/inkscape"
   id="generated_logo_1"
   viewBox="0 0 265.4147 137.49001"
   version="1.1"
   sodipodi:docname="logo_transparent.svg"
   width="265.4147"
   height="137.49001">
  <metadata
     id="metadata44">
    <rdf:RDF>
      <cc:Work
         rdf:about="">
        <dc:format>image/svg+xml</dc:format>
        <dc:type
           rdf:resource="http://purl.org/dc/dcmitype/StillImage" />
      </cc:Work>
    </rdf:RDF>
  </metadata>
  <defs
     id="defs42" />
  <sodipodi:namedview
     pagecolor="#ffffff"
     bordercolor="#666666"
     borderopacity="1"
     objecttolerance="10"
     gridtolerance="10"
     guidetolerance="10"
     inkscape:pageopacity="0"
     inkscape:pageshadow="2"
     inkscape:window-width="640"
     inkscape:window-height="480"
     id="namedview40" />
  <style
     type="text/css"
     class="styleimportlogofontmain"
     id="style2">@import url(&quot;https://fonts.googleapis.com/css2?family=Playfair Display:wght@400;500;700;900&quot;);#generated_logo_1 .maintypo { font-family: Playfair Display; font-weight: 400; }</style>
  <style
     type="text/css"
     class="styleimportlogofontsub"
     id="style4">@import url(&quot;https://fonts.googleapis.com/css2?family=Raleway:wght@300;400;500;700;900&quot;);#generated_logo_1 .subtypo { font-family: Raleway; font-weight: 400; }</style>
  <style
     type="text/css"
     class="styleimportlogopos"
     id="style6" />
  <g
     id="logo-elements"
     transform="translate(-8.60082,37.49)"
     transform-box="stroke-box">
    <g
       id="iconcontainer"
       transform="translate(140,50)"
       transform-origin="center"
       transform-box="fill-box">
      <g
         class="iconBGGrpM"
         id="g10">
        <g
           class="iconBGGrp"
           transform="matrix(0.1,0,0,0.1,-50,-50)"
           id="g8" />
      </g>
      <g
         class="iconGrpM"
         id="g26">
        <g
           class="iconGrp"
           transform="matrix(0.1,0,0,0.1,-50,-50)"
           id="g24">
          <g
             class="lg_icon"
             id="lg_icon_132"
             stroke="none"
             stroke-width="1"
             fill="none"
             fill-rule="evenodd">
            <g
               id="0132">
              <defs
                 id="defs13">
                <polygon
                   id="path-1"
                   points="0.0001,0 600,0 600,669.947 0.0001,669.947 " />
              </defs>
              <path
                 id="FRAME"
                 style="fill:none"
                 d="M 0,0 V 1000 H 1000 V 0 Z" />
              <g
                 id="Icon"
                 transform="translate(199.9999,165.0003)">
                <mask
                   id="mask-2"
                   fill="#ffffff">
                  <use
                     xlink:href="#path-1"
                     id="use16"
                     x="0"
                     y="0"
                     width="100%"
                     height="100%" />
                </mask>
                <g
                   id="Clip-2" />
                <path
                   d="M 0,186.962 C 0,84.974 19.58,0 300.023,0 580.467,0 600,84.974 600,186.985 600,264.886 455.825,669.947 300.023,669.947 144.221,669.947 0,264.862 0,186.962"
                   id="Fill-1"
                   fill="#ffffff" />
              </g>
            </g>
          </g>
        </g>
      </g>
    </g>
    <g
       id="textlines"
       transform="translate(65,-45)">
      <g
         id="einsg"
         transform="translate(0,45)">
        <g
           aria-label="OMNIA"
           id="eins"
           style="text-anchor:middle;text-rendering:geometricPrecision">
          <path
             d="m -42.08918,-37.49 q 4.275,0 7.47,1.935 3.24,1.935 4.995,5.58 1.8,3.6 1.8,8.775 0,5.04 -1.845,8.82 -1.8,3.78 -5.04,5.895 -3.24,2.115 -7.425,2.115 -4.275,0 -7.515,-1.935 -3.195,-1.935 -4.995,-5.58 -1.755,-3.645 -1.755,-8.775 0,-5.04 1.845,-8.82 1.845,-3.78 5.04,-5.895 3.24,-2.115 7.425,-2.115 z m -0.18,0.81 q -2.925,0 -5.085,2.025 -2.16,2.025 -3.375,5.58 -1.17,3.555 -1.17,8.235 0,4.77 1.305,8.325 1.35,3.51 3.6,5.445 2.295,1.89 5.04,1.89 2.925,0 5.085,-2.025 2.16,-2.025 3.33,-5.58 1.215,-3.6 1.215,-8.235 0,-4.815 -1.35,-8.325 -1.305,-3.51 -3.555,-5.4 -2.25,-1.935 -5.04,-1.935 z"
             style="font-weight:400;font-size:45px;font-family:'Playfair Display';letter-spacing:30;fill:#000000"
             id="path47" />
          <path
             d="m 41.479805,-36.86 v 0.9 q -1.53,0.045 -2.34,0.36 -0.765,0.27 -1.035,1.08 -0.27,0.765 -0.27,2.43 v 22.32 q 0,1.62 0.27,2.43 0.27,0.81 1.035,1.08 0.81,0.27 2.34,0.36 V -5 q -1.035,-0.09 -2.61,-0.09 -1.53,-0.045 -3.105,-0.045 -1.755,0 -3.285,0.045 -1.53,0 -2.475,0.09 v -0.9 q 1.53,-0.09 2.295,-0.36 0.81,-0.27 1.08,-1.08 0.27,-0.81 0.27,-2.43 v -24.75 l 0.18,0.135 -11.025,29.61 h -0.72 l -11.34,-29.205 v 23.76 q 0,1.62 0.27,2.565 0.315,0.9 1.17,1.305 0.9,0.36 2.655,0.45 V -5 q -0.81,-0.09 -2.115,-0.09 -1.305,-0.045 -2.475,-0.045 -1.1250003,0 -2.2950003,0.045 -1.125,0 -1.89,0.09 v -0.9 q 1.53,-0.09 2.295,-0.45 0.81,-0.405 1.08,-1.305 0.27,-0.945 0.27,-2.565 v -21.87 q 0,-1.665 -0.27,-2.43 -0.27,-0.81 -1.08,-1.08 -0.765,-0.315 -2.295,-0.36 v -0.9 q 0.765,0.045 1.89,0.09 1.17,0.045 2.2950003,0.045 0.99,0 2.025,-0.045 1.08,-0.045 1.8,-0.09 l 10.215,26.91 -0.765,0.36 10.125,-27.135 q 0.54,0 1.035,0 0.54,0 1.08,0 1.575,0 3.105,-0.045 1.575,-0.045 2.61,-0.09 z"
             style="font-weight:400;font-size:45px;font-family:'Playfair Display';letter-spacing:30;fill:#000000"
             id="path49" />
          <path
             d="m 103.52402,-36.86 v 0.9 q -1.53,0.045 -2.34,0.45 -0.765,0.405 -1.035,1.305 -0.269997,0.9 -0.269997,2.565 v 26.865 q -0.27,0 -0.54,0 -0.225,0 -0.495,0 l -18.9,-29.205 v 23.76 q 0,1.62 0.27,2.565 0.315,0.9 1.17,1.305 0.9,0.36 2.655,0.45 V -5 q -0.81,-0.09 -2.115,-0.09 -1.305,-0.045 -2.475,-0.045 -1.125,0 -2.295,0.045 -1.125,0 -1.89,0.09 v -0.9 q 1.53,-0.09 2.295,-0.45 0.81,-0.405 1.08,-1.305 0.27,-0.945 0.27,-2.565 v -21.87 q 0,-1.665 -0.27,-2.43 -0.27,-0.81 -1.08,-1.08 -0.765,-0.315 -2.295,-0.36 v -0.9 q 0.765,0.045 1.89,0.09 1.17,0.045 2.295,0.045 0.99,0 1.89,-0.045 0.9,-0.045 1.62,-0.09 l 15.885,24.48 v -19.26 q 0,-1.665 -0.315,-2.565 -0.27,-0.9 -1.17,-1.305 -0.855,-0.405 -2.61,-0.45 v -0.9 q 0.81,0.045 2.115,0.09 1.35,0.045 2.475,0.045 1.169997,0 2.294997,-0.045 1.17,-0.045 1.89,-0.09 z"
             style="font-weight:400;font-size:45px;font-family:'Playfair Display';letter-spacing:30;fill:#000000"
             id="path51" />
          <path
             d="m 148.46754,-36.86 v 0.9 q -1.53,0.045 -2.34,0.36 -0.765,0.27 -1.035,1.08 -0.27,0.765 -0.27,2.43 v 22.32 q 0,1.62 0.27,2.43 0.27,0.81 1.035,1.08 0.81,0.27 2.34,0.36 V -5 q -1.035,-0.09 -2.61,-0.09 -1.53,-0.045 -3.105,-0.045 -1.755,0 -3.285,0.045 -1.53,0 -2.475,0.09 v -0.9 q 1.53,-0.09 2.295,-0.36 0.81,-0.27 1.08,-1.08 0.27,-0.81 0.27,-2.43 v -22.32 q 0,-1.665 -0.27,-2.43 -0.27,-0.81 -1.08,-1.08 -0.765,-0.315 -2.295,-0.36 v -0.9 q 0.945,0.045 2.475,0.09 1.53,0.045 3.285,0.045 1.575,0 3.105,-0.045 1.575,-0.045 2.61,-0.09 z"
             style="font-weight:400;font-size:45px;font-family:'Playfair Display';letter-spacing:30;fill:#000000"
             id="path53" />
          <path
             d="m 194.93051,-37.085 10.98,28.305 q 0.675,1.71 1.53,2.295 0.855,0.54 1.575,0.585 V -5 q -0.9,-0.09 -2.205,-0.09 -1.305,-0.045 -2.61,-0.045 -1.755,0 -3.285,0.045 -1.53,0 -2.475,0.09 v -0.9 q 2.295,-0.09 2.925,-0.765 0.63,-0.72 -0.27,-3.015 l -8.37,-22.365 0.72,-0.585 -7.83,20.34 q -0.945,2.43 -0.9,3.825 0.045,1.35 1.035,1.935 0.99,0.585 2.88,0.63 V -5 q -1.26,-0.09 -2.655,-0.09 -1.35,-0.045 -2.52,-0.045 -1.125,0 -1.935,0.045 -0.765,0 -1.44,0.09 v -0.9 q 0.9,-0.225 1.845,-1.035 0.945,-0.855 1.71,-2.88 l 10.575,-27.27 q 0.18,0 0.36,0 0.18,0 0.36,0 z m 5.49,19.125 v 0.9 h -13.41 l 0.45,-0.9 z"
             style="font-weight:400;font-size:45px;font-family:'Playfair Display';letter-spacing:30;fill:#000000"
             id="path55" />
        </g>
      </g>
      <g
         id="zweig"
         transform="translate(0,5)">
        <g
           id="zwei"
           style="dominant-baseline:text-before-edge;text-anchor:middle;text-rendering:geometricPrecision" />
      </g>
    </g>
  </g>
</svg>
